<?xml version="1.0" encoding="utf-8"?>
<!-- Generator: Adobe Illustrator 16.0.3, SVG Export Plug-In . SVG Version: 6.00 Build 0)  -->
<svg version="1.2" baseProfile="tiny" id="Layer_1" xmlns="http://www.w3.org/2000/svg" xmlns:xlink="http://www.w3.org/1999/xlink"
	 x="0px" y="0px" width="320px" height="100px" viewBox="0 0 320 100" xml:space="preserve">
<path fill="#7B00CB" d="M91.43-148.5c-8.99-13.27-24.19-22-41.43-22s-32.44,8.73-41.43,22H91.43z"/>
<path fill="#00E291" d="M58-132.5v61.35c23.81-3.83,42-24.46,42-49.35c0-4.14-0.51-8.15-1.46-12H58z"/>
<path fill="#FF486D" d="M42-132.5H1.46c-0.95,3.85-1.46,7.86-1.46,12c0,24.89,18.19,45.52,42,49.35V-132.5z"/>
<g>
	<path fill="#7B00CB" d="M126.88,60.38c1.68-0.16,2.93-0.39,3.75-0.69c0.82-0.3,1.39-0.79,1.71-1.47c0.32-0.68,0.48-1.66,0.48-2.94
		V33.8c-1.12,0-1.95,0.2-2.49,0.6c-0.54,0.4-0.94,1.16-1.2,2.28c-0.26,1.12-0.49,2.88-0.69,5.28L121,42.44
		c0.24-4.68,0.4-9.92,0.48-15.72l0.78-0.84l7.14,0.66h18.84l7.26-0.66l0.78,0.84c0.08,6.76,0.18,11.84,0.3,15.24l-7.44,0.48
		c-0.2-2.76-0.42-4.71-0.66-5.85c-0.24-1.14-0.6-1.89-1.08-2.25c-0.48-0.36-1.28-0.54-2.4-0.54c-0.2,7.28-0.3,14.6-0.3,21.96
		c0,1.52,0.23,2.59,0.69,3.21s1.27,0.93,2.43,0.93c0.72,0,1.74-0.06,3.06-0.18l0.3,0.36l-0.54,5.64c-5.28-0.24-9.34-0.36-12.18-0.36
		c-2.64,0-6.66,0.18-12.06,0.54L126.88,60.38z"/>
	<path fill="#7B00CB" d="M161.14,78.65c-1.08-0.82-2.05-1.76-2.91-2.82s-1.29-1.87-1.29-2.43l0.6-1.14
		c5.8-0.92,9.98-2.86,12.54-5.82l-1.74-4.56c-1.28-3.36-2.62-6.8-4.02-10.32c-1.4-3.52-2.4-5.82-3-6.9
		c-0.44-0.8-0.89-1.36-1.35-1.68c-0.46-0.32-1.03-0.52-1.71-0.6l-0.12-0.3l0.48-5.04h4.32c2.16,0,4.58-0.05,7.26-0.15
		c2.68-0.1,4.02-0.19,4.02-0.27l0.12,0.3l-0.66,5.28c-0.88,0.08-1.47,0.22-1.77,0.42c-0.3,0.2-0.45,0.52-0.45,0.96
		c0,0.72,0.39,2.52,1.17,5.4c0.78,2.88,1.31,4.82,1.59,5.82h1.08c2.48-6.8,3.72-10.64,3.72-11.52c0-0.4-0.07-0.65-0.21-0.75
		c-0.14-0.1-0.49-0.15-1.05-0.15h-0.96l-0.24-0.42l0.66-5.04c0.44,0,1.31,0.02,2.61,0.06c1.3,0.04,2.65,0.06,4.05,0.06h6.06
		l-0.54,5.28c-0.84,0.24-1.43,0.5-1.77,0.78c-0.34,0.28-0.65,0.8-0.93,1.56l-7.62,18.84c-2.04,5.04-4.45,9.03-7.23,11.97
		c-2.78,2.94-5.53,4.41-8.25,4.41C163.04,79.88,162.22,79.46,161.14,78.65z"/>
	<path fill="#7B00CB" d="M191.32,74.24c0.92-0.04,1.54-0.27,1.86-0.69c0.32-0.42,0.52-1.23,0.6-2.43l0.12-1.62
		c0.04-0.52,0.1-1.49,0.18-2.91c0.08-1.42,0.12-2.69,0.12-3.81V46.94c0-1.4-0.19-2.33-0.57-2.79c-0.38-0.46-1.15-0.69-2.31-0.69
		h-0.96l-0.3-0.42l0.48-4.5c2.92-0.4,5.78-0.83,8.58-1.29c2.8-0.46,4.6-0.77,5.4-0.93l0.72,0.72c-0.04,0.28-0.14,0.83-0.3,1.65
		c-0.16,0.82-0.3,1.73-0.42,2.73l0.24,0.12c2.72-3.28,4.36-4.92,4.92-4.92c2.44,0,4.59,0.56,6.45,1.68c1.86,1.12,3.3,2.72,4.32,4.8
		c1.02,2.08,1.53,4.48,1.53,7.2c0,5.08-1.49,8.93-4.47,11.55c-2.98,2.62-7.17,3.93-12.57,3.93c-0.12,0-0.22-0.01-0.3-0.03
		c-0.08-0.02-0.14-0.03-0.18-0.03l-0.06,5.34c0,1.16,0.08,1.94,0.24,2.34c0.16,0.4,0.56,0.6,1.2,0.6c0.64,0,1.23-0.02,1.77-0.06
		c0.54-0.04,0.91-0.08,1.11-0.12l0.18,0.3l-0.84,5.28c-0.68-0.04-1.94-0.09-3.78-0.15c-1.84-0.06-3.62-0.09-5.34-0.09
		c-1.36,0-2.95,0.04-4.77,0.12c-1.82,0.08-3.01,0.14-3.57,0.18L191.32,74.24z M209.92,57.47c0.52-1.02,0.78-2.59,0.78-4.71
		c0-2.88-0.28-4.96-0.84-6.24c-0.56-1.28-1.48-1.92-2.76-1.92c-0.64,0-1.32,0.16-2.04,0.48c-0.16,5.92-0.24,10.38-0.24,13.38
		c0.16,0.08,0.5,0.19,1.02,0.33c0.52,0.14,1.1,0.21,1.74,0.21C208.62,59,209.4,58.49,209.92,57.47z"/>
	<path fill="#7B00CB" d="M228.49,62.27c-2.46-2.54-3.69-6.01-3.69-10.41c0-4.88,1.33-8.69,3.99-11.43
		c2.66-2.74,6.37-4.11,11.13-4.11c4.44,0,7.84,1.22,10.2,3.66c2.36,2.44,3.54,5.94,3.54,10.5c0,4.88-1.33,8.7-3.99,11.46
		s-6.35,4.14-11.07,4.14C234.32,66.08,230.95,64.81,228.49,62.27z M241.48,58.43c0.4-0.82,0.6-2.33,0.6-4.53
		c0-2.72-0.09-4.82-0.27-6.3c-0.18-1.48-0.5-2.53-0.96-3.15c-0.46-0.62-1.09-0.93-1.89-0.93c-1.04,0-1.76,0.4-2.16,1.2
		c-0.4,0.8-0.6,2.26-0.6,4.38c0,2.76,0.09,4.89,0.27,6.39c0.18,1.5,0.5,2.57,0.96,3.21c0.46,0.64,1.09,0.96,1.89,0.96
		C240.36,59.66,241.08,59.25,241.48,58.43z"/>
	<path fill="#7B00CB" d="M257.08,74.24c0.92-0.04,1.54-0.27,1.86-0.69c0.32-0.42,0.52-1.23,0.6-2.43l0.12-1.62
		c0.04-0.52,0.1-1.49,0.18-2.91c0.08-1.42,0.12-2.69,0.12-3.81V46.94c0-1.4-0.19-2.33-0.57-2.79c-0.38-0.46-1.15-0.69-2.31-0.69
		h-0.96l-0.3-0.42l0.48-4.5c2.92-0.4,5.78-0.83,8.58-1.29c2.8-0.46,4.6-0.77,5.4-0.93l0.72,0.72c-0.04,0.28-0.14,0.83-0.3,1.65
		c-0.16,0.82-0.3,1.73-0.42,2.73l0.24,0.12c2.72-3.28,4.36-4.92,4.92-4.92c2.44,0,4.59,0.56,6.45,1.68c1.86,1.12,3.3,2.72,4.32,4.8
		c1.02,2.08,1.53,4.48,1.53,7.2c0,5.08-1.49,8.93-4.47,11.55c-2.98,2.62-7.17,3.93-12.57,3.93c-0.12,0-0.22-0.01-0.3-0.03
		c-0.08-0.02-0.14-0.03-0.18-0.03l-0.06,5.34c0,1.16,0.08,1.94,0.24,2.34c0.16,0.4,0.56,0.6,1.2,0.6c0.64,0,1.23-0.02,1.77-0.06
		c0.54-0.04,0.91-0.08,1.11-0.12l0.18,0.3l-0.84,5.28c-0.68-0.04-1.94-0.09-3.78-0.15c-1.84-0.06-3.62-0.09-5.34-0.09
		c-1.36,0-2.95,0.04-4.77,0.12c-1.82,0.08-3.01,0.14-3.57,0.18L257.08,74.24z M275.68,57.47c0.52-1.02,0.78-2.59,0.78-4.71
		c0-2.88-0.28-4.96-0.84-6.24c-0.56-1.28-1.48-1.92-2.76-1.92c-0.64,0-1.32,0.16-2.04,0.48c-0.16,5.92-0.24,10.38-0.24,13.38
		c0.16,0.08,0.5,0.19,1.02,0.33c0.52,0.14,1.1,0.21,1.74,0.21C274.38,59,275.16,58.49,275.68,57.47z"/>
	<path fill="#7B00CB" d="M294.25,62.27c-2.46-2.54-3.69-6.01-3.69-10.41c0-4.88,1.33-8.69,3.99-11.43
		c2.66-2.74,6.37-4.11,11.13-4.11c4.44,0,7.84,1.22,10.2,3.66c2.36,2.44,3.54,5.94,3.54,10.5c0,4.88-1.33,8.7-3.99,11.46
		s-6.35,4.14-11.07,4.14C300.07,66.08,296.71,64.81,294.25,62.27z M307.24,58.43c0.4-0.82,0.6-2.33,0.6-4.53
		c0-2.72-0.09-4.82-0.27-6.3c-0.18-1.48-0.5-2.53-0.96-3.15c-0.46-0.62-1.09-0.93-1.89-0.93c-1.04,0-1.76,0.4-2.16,1.2
		c-0.4,0.8-0.6,2.26-0.6,4.38c0,2.76,0.09,4.89,0.27,6.39c0.18,1.5,0.5,2.57,0.96,3.21c0.46,0.64,1.09,0.96,1.89,0.96
		C306.11,59.66,306.83,59.25,307.24,58.43z"/>
</g>
<path fill="#7B00CB" d="M91.43,22.33c-8.99-13.27-24.19-22-41.43-22s-32.44,8.73-41.43,22H91.43z"/>
<path fill="#00E291" d="M58,38.33v61.35c23.81-3.83,42-24.46,42-49.35c0-4.14-0.51-8.15-1.46-12H58z"/>
<path fill="#FF486D" d="M42,38.33H1.46C0.51,42.18,0,46.19,0,50.33c0,24.89,18.19,45.52,42,49.35V38.33z"/>
<text transform="matrix(1 0 0 1 120.999 174.8555)" fill="#7B00CB" font-family="'Alegreya-Black'" font-size="60">T</text>
<text transform="matrix(1 0 0 1 159.2773 174.8555)" fill="#7B00CB" font-family="'Alegreya-Black'" font-size="60">y</text>
<text transform="matrix(1 0 0 1 189.9375 174.8555)" fill="#7B00CB" font-family="'Alegreya-Black'" font-size="60">p</text>
<text transform="matrix(1 0 0 1 223.1162 174.8555)" fill="#7B00CB" font-family="'Alegreya-Black'" font-size="60">o</text>
<text transform="matrix(1 0 0 1 255.6963 174.8555)" fill="#7B00CB" font-family="'Alegreya-Black'" font-size="60">p</text>
<text transform="matrix(1 0 0 1 288.875 174.8555)" fill="#7B00CB" font-family="'Alegreya-Black'" font-size="60">o</text>
<path fill="#7B00CB" d="M91.43,131.83c-8.99-13.27-24.19-22-41.43-22s-32.44,8.73-41.43,22H91.43z"/>
<path fill="#00E291" d="M58,147.83v61.35c23.81-3.83,42-24.46,42-49.35c0-4.14-0.51-8.15-1.46-12H58z"/>
<path fill="#FF486D" d="M42,147.83H1.46c-0.95,3.85-1.46,7.86-1.46,12c0,24.89,18.19,45.52,42,49.35V147.83z"/>
</svg>
